<?xml version="1.0" encoding="utf-8"?>
<!-- Adapted from https://www.svgrepo.com/vectors/ -->
<svg width="800px" height="800px" viewBox="0 0 32 32" xmlns="http://www.w3.org/2000/svg">
	<path fill="#0AB9E6" d="M15.198 0h-7c-4.5 0-8.198 3.698-8.198 8.198v15.604c0 4.5 3.698 8.198 8.198 8.198h7c0.099 0 0.203-0.099 0.203-0.198v-31.604c0-0.099-0.099-0.198-0.203-0.198z"/>
	<path fill="#0AB9E6" d="M12.901 29.401h-4.703c-3.099 0-5.599-2.5-5.599-5.599v-15.604c0-3.099 2.5-5.599 5.599-5.599h4.604z"/>
	<path fill="black" d="M5 9.599c0 1.698 1.302 3 3 3s3-1.302 3-3c0-1.698-1.302-3-3-3s-3 1.302-3 3z"/>

	<path fill="#FF3C28" d="M18.901 32h4.901c4.5 0 8.198-3.698 8.198-8.198v-15.604c0-4.5-3.698-8.198-8.198-8.198h-5c-0.099 0-0.203 0.099-0.203 0.198v31.604c0 0.099 0.099 0.198 0.302 0.198z"/>
	<path fill="black" d="M25 14.401c1.802 0 3.198 1.5 3.198 3.198 0 1.802-1.5 3.198-3.198 3.198-1.802 0-3.198-1.396-3.198-3.198-0.104-1.797 1.396-3.198 3.198-3.198z"/>
</svg>